<svg xmlns="http://www.w3.org/2000/svg" viewBox="0 0 512 512" width="512" height="512">
  <defs>
    <radialGradient id="disc" cx="50%" cy="42%" r="65%">
      <stop offset="0%" stop-color="#3a3a3a"/>
      <stop offset="70%" stop-color="#262626"/>
      <stop offset="100%" stop-color="#161616"/>
    </radialGradient>
  </defs>

  <circle cx="256" cy="256" r="256" fill="url(#disc)"/>

  <!-- Verduras a linea (fondo sutil) -->
  <g stroke="#EDE7DC" stroke-width="2.2" fill="none" opacity="0.14" stroke-linecap="round" stroke-linejoin="round">
    <g transform="translate(356,168)">
      <path d="M -34,4 C -34,-22 -14,-34 0,-34 C 16,-34 34,-20 34,4 C 34,28 16,40 0,40 C -16,40 -34,28 -34,4 Z"/>
      <path d="M -12,-30 L -2,-40 M 0,-32 L 0,-44 M 12,-30 L 4,-41"/>
    </g>
    <g transform="translate(150,186) rotate(-28)">
      <path d="M 0,-40 C 20,-40 30,-18 30,8 C 30,34 16,52 0,52 C -16,52 -30,34 -30,8 C -30,-18 -20,-40 0,-40 Z"/>
      <path d="M -6,-42 C -6,-54 6,-58 12,-50"/>
    </g>
    <g transform="translate(150,358)">
      <circle r="40"/>
      <circle r="30"/>
      <path d="M 0,0 L 0,-30 M 0,0 L 26,-15 M 0,0 L 26,15 M 0,0 L 0,30 M 0,0 L -26,15 M 0,0 L -26,-15"/>
    </g>
    <g transform="translate(366,346) rotate(18)">
      <path d="M 0,-46 C 26,-46 38,-18 38,12 C 38,40 20,58 0,58 C -20,58 -38,40 -38,12 C -38,-18 -26,-46 0,-46 Z"/>
      <circle cy="16" r="16"/>
    </g>
  </g>

  <!-- Doble anillo -->
  <circle cx="256" cy="256" r="232" fill="none" stroke="#F4EFE6" stroke-width="3"/>
  <circle cx="256" cy="256" r="220" fill="none" stroke="#F4EFE6" stroke-width="2"/>

  <!-- Texto en arco -->
  <g font-family="Georgia, 'Times New Roman', serif" font-weight="500" letter-spacing="0">
    <text x="95.46" y="166.09" transform="rotate(-60.75 95.46 166.09)" fill="#F6F2EA" font-size="40" text-anchor="middle" dominant-baseline="central">L</text>
    <text x="120.88" y="131.10" transform="rotate(-47.25 120.88 131.10)" fill="#F6F2EA" font-size="40" text-anchor="middle" dominant-baseline="central">A</text>
    
    <text x="192.31" y="83.37" transform="rotate(-20.25 192.31 83.37)" fill="#F6F2EA" font-size="40" text-anchor="middle" dominant-baseline="central">C</text>
    <text x="234.37" y="73.28" transform="rotate(-6.75 234.37 73.28)" fill="#F6F2EA" font-size="40" text-anchor="middle" dominant-baseline="central">E</text>
    <text x="277.63" y="73.28" transform="rotate(6.75 277.63 73.28)" fill="#F6F2EA" font-size="40" text-anchor="middle" dominant-baseline="central">N</text>
    <text x="319.69" y="83.37" transform="rotate(20.25 319.69 83.37)" fill="#F6F2EA" font-size="40" text-anchor="middle" dominant-baseline="central">T</text>
    <text x="358.22" y="103.01" transform="rotate(33.75 358.22 103.01)" fill="#F6F2EA" font-size="40" text-anchor="middle" dominant-baseline="central">R</text>
    <text x="391.12" y="131.10" transform="rotate(47.25 391.12 131.10)" fill="#F6F2EA" font-size="40" text-anchor="middle" dominant-baseline="central">A</text>
    <text x="416.54" y="166.09" transform="rotate(60.75 416.54 166.09)" fill="#F6F2EA" font-size="40" text-anchor="middle" dominant-baseline="central">L</text>
  </g>

  <!-- Monograma LC -->
  <text x="256" y="322" fill="#FBF8F2" font-family="Georgia, 'Times New Roman', serif"
        font-size="186" font-weight="600" text-anchor="middle" letter-spacing="-6">LC</text>
</svg>
